<?xml version="1.0" encoding="UTF-8"?>
<svg id="Calque_1" data-name="Calque 1" xmlns="http://www.w3.org/2000/svg" viewBox="0 0 255.12 255.12">
  <defs>
    <style>
      .cls-1 {
        fill: #fff;
      }
    </style>
  </defs>
  <polygon class="cls-1" points="179.94 178.24 131.79 119.38 174.66 77.06 189.48 77.06 189.48 65.19 131.53 65.19 131.53 77.06 153.85 77.06 112.69 117.69 108.48 121.85 103.44 126.83 103.44 77.06 123.42 77.06 123.42 65.19 64.42 65.19 64.42 77.06 83.85 77.06 83.85 146.17 83.85 150.36 83.85 178.24 64.42 178.24 64.42 190.11 123.42 190.11 123.42 178.24 103.44 178.24 103.44 147.38 117.78 133.21 154.61 178.24 131.53 178.24 131.53 190.11 195.53 190.11 195.53 178.24 179.94 178.24"/>
  <path class="cls-1" d="m127.56,241.94c-63.07,0-114.39-51.31-114.39-114.39S64.49,13.17,127.56,13.17s114.39,51.31,114.39,114.39-51.31,114.39-114.39,114.39Zm0-226.77c-61.97,0-112.39,50.42-112.39,112.39s50.42,112.39,112.39,112.39,112.39-50.42,112.39-112.39S189.53,15.17,127.56,15.17Z"/>
</svg>